<svg xmlns="http://www.w3.org/2000/svg" width="805" height="600"><rect width="805" height="600" x="0" y="0" fill="#FFFFFF" id="backgorund"/><g id="viz"><clipPath id="serieClipPath"><rect x="-50" y="-35" width="805" height="600"/></clipPath><g transform="translate(0,0)"><g transform="translate(50,35)" clip-path="url(#serieClipPath)"><g id="axis"><g transform="translate(0,530)" fill="none" font-size="10" font-family="sans-serif" text-anchor="middle"><path class="domain" stroke="currentColor" d="M0.5,6V0.5H720.5V6"/><g class="tick" opacity="1" transform="translate(0.5,0)"><line stroke="currentColor" y2="6"/><text fill="currentColor" y="9" dy="0.71em">Tue 15</text></g><g class="tick" opacity="1" transform="translate(46.95161290322581,0)"><line stroke="currentColor" y2="6"/><text fill="currentColor" y="9" dy="0.71em">Thu 17</text></g><g class="tick" opacity="1" transform="translate(93.40322580645162,0)"><line stroke="currentColor" y2="6"/><text fill="currentColor" y="9" dy="0.71em">Sat 19</text></g><g class="tick" opacity="1" transform="translate(139.8548387096774,0)"><line stroke="currentColor" y2="6"/><text fill="currentColor" y="9" dy="0.71em">Mon 21</text></g><g class="tick" opacity="1" transform="translate(186.30645161290323,0)"><line stroke="currentColor" y2="6"/><text fill="currentColor" y="9" dy="0.71em">Wed 23</text></g><g class="tick" opacity="1" transform="translate(232.75806451612902,0)"><line stroke="currentColor" y2="6"/><text fill="currentColor" y="9" dy="0.71em">Fri 25</text></g><g class="tick" opacity="1" transform="translate(279.2096774193548,0)"><line stroke="currentColor" y2="6"/><text fill="currentColor" y="9" dy="0.71em">Mar 27</text></g><g class="tick" opacity="1" transform="translate(325.6612903225806,0)"><line stroke="currentColor" y2="6"/><text fill="currentColor" y="9" dy="0.71em">Tue 29</text></g><g class="tick" opacity="1" transform="translate(372.11290322580646,0)"><line stroke="currentColor" y2="6"/><text fill="currentColor" y="9" dy="0.71em">Thu 31</text></g><g class="tick" opacity="1" transform="translate(395.33870967741933,0)"><line stroke="currentColor" y2="6"/><text fill="currentColor" y="9" dy="0.71em">April</text></g><g class="tick" opacity="1" transform="translate(441.7903225806452,0)"><line stroke="currentColor" y2="6"/><text fill="currentColor" y="9" dy="0.71em">Apr 03</text></g><g class="tick" opacity="1" transform="translate(488.2419354838709,0)"><line stroke="currentColor" y2="6"/><text fill="currentColor" y="9" dy="0.71em">Tue 05</text></g><g class="tick" opacity="1" transform="translate(534.6935483870968,0)"><line stroke="currentColor" y2="6"/><text fill="currentColor" y="9" dy="0.71em">Thu 07</text></g><g class="tick" opacity="1" transform="translate(581.1451612903226,0)"><line stroke="currentColor" y2="6"/><text fill="currentColor" y="9" dy="0.71em">Sat 09</text></g><g class="tick" opacity="1" transform="translate(627.5967741935484,0)"><line stroke="currentColor" y2="6"/><text fill="currentColor" y="9" dy="0.71em">Mon 11</text></g><g class="tick" opacity="1" transform="translate(674.0483870967741,0)"><line stroke="currentColor" y2="6"/><text fill="currentColor" y="9" dy="0.71em">Wed 13</text></g><g class="tick" opacity="1" transform="translate(720.5,0)"><line stroke="currentColor" y2="6"/><text fill="currentColor" y="9" dy="0.71em">Fri 15</text></g><text x="720" dy="-5" text-anchor="end" style="font-family: Arial, sans-serif; font-size: 12px; fill: rgb(123, 123, 123); font-weight: bold;">日期</text></g><g transform="translate(0,0)" fill="none" font-size="10" font-family="sans-serif" text-anchor="end"><path class="domain" stroke="currentColor" d="M0.5,530.5V0.5"/><g class="tick" opacity="1" transform="translate(0,530.5)"><line stroke="currentColor" x2="-6"/><text fill="currentColor" x="-9" dy="0.32em">555</text></g><g class="tick" opacity="1" transform="translate(0,471.6111111111111)"><line stroke="currentColor" x2="-6"/><text fill="currentColor" x="-9" dy="0.32em">560</text></g><g class="tick" opacity="1" transform="translate(0,412.72222222222223)"><line stroke="currentColor" x2="-6"/><text fill="currentColor" x="-9" dy="0.32em">565</text></g><g class="tick" opacity="1" transform="translate(0,353.83333333333337)"><line stroke="currentColor" x2="-6"/><text fill="currentColor" x="-9" dy="0.32em">570</text></g><g class="tick" opacity="1" transform="translate(0,294.94444444444446)"><line stroke="currentColor" x2="-6"/><text fill="currentColor" x="-9" dy="0.32em">575</text></g><g class="tick" opacity="1" transform="translate(0,236.05555555555554)"><line stroke="currentColor" x2="-6"/><text fill="currentColor" x="-9" dy="0.32em">580</text></g><g class="tick" opacity="1" transform="translate(0,177.16666666666669)"><line stroke="currentColor" x2="-6"/><text fill="currentColor" x="-9" dy="0.32em">585</text></g><g class="tick" opacity="1" transform="translate(0,118.27777777777777)"><line stroke="currentColor" x2="-6"/><text fill="currentColor" x="-9" dy="0.32em">590</text></g><g class="tick" opacity="1" transform="translate(0,59.388888888888914)"><line stroke="currentColor" x2="-6"/><text fill="currentColor" x="-9" dy="0.32em">595</text></g><g class="tick" opacity="1" transform="translate(0,0.5)"><line stroke="currentColor" x2="-6"/><text fill="currentColor" x="-9" dy="0.32em">600</text></g><text x="4" text-anchor="start" dominant-baseline="hanging" style="font-family: Arial, sans-serif; font-size: 12px; fill: rgb(123, 123, 123); font-weight: bold;">收盤</text></g></g><g id="viz"><g><path d="M0,494.6666666666667C11.612903225806452,494.6666666666667,11.612903225806452,494.6666666666667,23.225806451612904,494.6666666666667C34.83870967741936,494.6666666666667,34.83870967741936,212,46.45161290322581,212C58.064516129032256,212,58.064516129032256,223.7777777777778,69.6774193548387,223.7777777777778C104.51612903225805,223.7777777777778,104.51612903225805,164.88888888888889,139.3548387096774,164.88888888888889C150.96774193548384,164.88888888888889,150.96774193548384,200.22222222222223,162.5806451612903,200.22222222222223C174.19354838709677,200.22222222222223,174.19354838709677,117.77777777777777,185.80645161290323,117.77777777777777C197.4193548387097,117.77777777777777,197.4193548387097,105.99999999999997,209.03225806451616,105.99999999999997C220.6451612903226,105.99999999999997,220.6451612903226,23.555555555555532,232.25806451612902,23.555555555555532C267.0967741935484,23.555555555555532,267.0967741935484,188.44444444444443,301.93548387096774,188.44444444444443C313.54838709677415,188.44444444444443,313.54838709677415,129.55555555555557,325.1612903225806,129.55555555555557C336.7741935483871,129.55555555555557,336.7741935483871,0,348.38709677419354,0C360,0,360,35.33333333333333,371.61290322580646,35.33333333333333C383.2258064516129,35.33333333333333,383.2258064516129,129.55555555555557,394.83870967741933,129.55555555555557C452.9032258064516,129.55555555555557,452.9032258064516,259.11111111111114,510.9677419354839,259.11111111111114C522.5806451612904,259.11111111111114,522.5806451612904,400.44444444444446,534.1935483870968,400.44444444444446C545.8064516129032,400.44444444444446,545.8064516129032,388.6666666666667,557.4193548387096,388.6666666666667C592.258064516129,388.6666666666667,592.258064516129,494.6666666666667,627.0967741935484,494.6666666666667C638.7096774193549,494.6666666666667,638.7096774193549,506.44444444444446,650.3225806451612,506.44444444444446C661.9354838709677,506.44444444444446,661.9354838709677,318,673.5483870967741,318C685.1612903225806,318,685.1612903225806,318,696.7741935483871,318" stroke="#1f77b4" fill="none"/><text font-family="sans-serif" font-size="10" class="labels" x="348.38709677419354" y="0" dx="0" dy="-4" text-anchor="middle"/></g></g></g><text y="4" x="4" style="font-family: Arial, sans-serif; font-size: 12px; fill: black; font-weight: bold; dominant-baseline: hanging;"/></g><g id="grid"><rect x="0" y="0" width="805" height="600" fill="none" stroke="#ccc"/></g></g></svg>